<svg xmlns="http://www.w3.org/2000/svg" width="26.122" height="26" viewBox="0 0 26.122 26">
  <g id="Group_628" data-name="Group 628" transform="translate(0.122 109.324)">
    <rect id="Rectangle_66" data-name="Rectangle 66" width="26" height="26" transform="translate(0 -109.324)" fill="none"/>
    <g id="Group_627" data-name="Group 627" transform="translate(1.083 -106.834)">
      <path id="Path_690" data-name="Path 690" d="M19.684-89.319l-2.231-1.018,2.231-1.018L20.7-93.586l1.018,2.231,2.231,1.018L21.72-89.319,20.7-87.089Zm-10.893,4.4,1.018-2.23,2.231-1.018L9.808-89.189,8.791-91.42,7.772-89.189l-2.23,1.018,2.23,1.018Zm4.873-5.414,1.18-2.61,2.61-1.18-2.61-1.18-1.18-2.61-1.18,2.61-2.61,1.18,2.61,1.18ZM9.332-77.884l6.5-6.508,4.331,4.331,9.2-10.352L27.838-91.94,20.16-83.31l-4.331-4.331L7.708-79.509Z" transform="translate(-5.542 97.917)" fill="#a2a2c2" stroke="#a2a2c2" stroke-width="1"/>
    </g>
  </g>
</svg>
