<svg xmlns="http://www.w3.org/2000/svg" width="31.379" height="34.367" viewBox="0 0 31.379 34.367">
  <g id="Group_7" data-name="Group 7" transform="translate(-1809.5 -703.483)">
    <g id="Group" transform="translate(1819.96 731.873)">
      <g id="Vector" fill="none">
        <path d="M5.23,5.977A5.236,5.236,0,0,1,0,.747a.747.747,0,1,1,1.494,0,3.736,3.736,0,1,0,7.471,0,.747.747,0,1,1,1.494,0A5.236,5.236,0,0,1,5.23,5.977Z" stroke="none"/>
        <path d="M 5.229808330535889 5.976974964141846 C 2.345938444137573 5.976974964141846 -1.669464154474554e-06 3.631004810333252 -1.669464154474554e-06 0.7471248507499695 C -1.669464154474554e-06 0.3347148597240448 0.3347083330154419 4.859466571360826e-06 0.747118353843689 4.859466571360826e-06 C 1.159528374671936 4.859466571360826e-06 1.494228363037109 0.3347148597240448 1.494228363037109 0.7471248507499695 C 1.494228363037109 2.806184768676758 3.169268369674683 4.482724666595459 5.229808330535889 4.482724666595459 C 7.290348529815674 4.482724666595459 8.965388298034668 2.806184768676758 8.965388298034668 0.7471248507499695 C 8.965388298034668 0.3347148597240448 9.300098419189453 4.859466571360826e-06 9.712498664855957 4.859466571360826e-06 C 10.12490844726562 4.859466571360826e-06 10.45961856842041 0.3347148597240448 10.45961856842041 0.7471248507499695 C 10.45961856842041 3.631004810333252 8.113677978515625 5.976974964141846 5.229808330535889 5.976974964141846 Z" stroke="none" fill="#902fff"/>
      </g>
    </g>
    <g id="Group-2" data-name="Group" transform="translate(1809.5 703.483)">
      <g id="Vector-2" data-name="Vector" fill="none">
        <path d="M28.39,26.9H2.988C1.753,26.9,0,25.891,0,24.655c0-.656,1.033-1.276,1.53-1.7a.767.767,0,0,1,.1-.072A10.421,10.421,0,0,0,5.23,15V10.46A10.472,10.472,0,0,1,15.689,0a2.077,2.077,0,0,1,.384.028.747.747,0,1,1-.29,1.466,9,9,0,0,0-9.06,8.965V15a11.914,11.914,0,0,1-4.206,9.086.69.69,0,0,1-.075.055A.747.747,0,0,0,2.988,25.4h25.4a.746.746,0,0,0,.542-1.26.816.816,0,0,1-.072-.054A11.914,11.914,0,0,1,24.655,15V13.4a.747.747,0,0,1,1.494,0V15a10.42,10.42,0,0,0,3.6,7.881.649.649,0,0,1,.1.069c.5.427,1.532,1.047,1.532,1.7C31.379,25.891,29.626,26.9,28.39,26.9Z" stroke="none"/>
        <path d="M 28.39039611816406 26.89614105224609 L 2.988465547561646 26.89614105224609 C 1.752735495567322 26.89614105224609 5.468444669531891e-06 25.89054107666016 5.468444669531891e-06 24.65480995178223 C 5.468444669531891e-06 23.99884033203125 1.032515525817871 23.37872123718262 1.530095458030701 22.95137023925781 C 1.561475515365601 22.92448043823242 1.595835447311401 22.90056991577148 1.630205512046814 22.8796501159668 C 3.919365406036377 20.89232063293457 5.229805469512939 18.02639007568359 5.229805469512939 15.00207042694092 L 5.229805469512939 10.45961093902588 C 5.229805469512939 4.691880702972412 9.923185348510742 5.261230171527131e-07 15.68942546844482 5.261230171527131e-07 C 15.8089656829834 5.261230171527131e-07 15.95390510559082 0.004480526316910982 16.07344627380371 0.02839052677154541 C 16.4783763885498 0.107590526342392 16.74136543273926 0.50057053565979 16.66216468811035 0.9055005311965942 C 16.5844783782959 1.310439944267273 16.19000244140625 1.573422193527222 15.78356552124023 1.494230508804321 C 10.74501514434814 1.494230508804321 6.724035263061523 5.516700744628906 6.724035263061523 10.45961093902588 L 6.724035263061523 15.00207042694092 C 6.724035263061523 18.50304985046387 5.190955638885498 21.81426048278809 2.517775535583496 24.08847999572754 C 2.493875503540039 24.10791015625 2.46996545791626 24.1273307800293 2.443065404891968 24.14377021789551 C 2.314565420150757 24.28124046325684 2.241345405578613 24.46352958679199 2.241345405578613 24.6547908782959 C 2.241345405578613 25.06719970703125 2.577545404434204 25.40191078186035 2.988465547561646 25.40191078186035 L 28.39039611816406 25.40191078186035 C 28.80130577087402 25.40191078186035 29.13750457763672 25.06719970703125 29.13750457763672 24.6547908782959 C 29.13750457763672 24.46352958679199 29.06429481506348 24.27974128723145 28.93279457092285 24.14227104187012 C 28.90739631652832 24.12584114074707 28.88498497009277 24.10791015625 28.86107635498047 24.08847999572754 C 26.18789482116699 21.81426048278809 24.65481567382812 18.50304985046387 24.65481567382812 15.00207042694092 L 24.65481567382812 13.40324020385742 C 24.65481567382812 12.99084091186523 24.98952484130859 12.65613079071045 25.40192604064941 12.65613079071045 C 25.81433486938477 12.65613079071045 26.14904594421387 12.99084091186523 26.14904594421387 13.40324020385742 L 26.14904594421387 15.00207042694092 C 26.14904594421387 18.02938079833984 27.46097564697266 20.89531135559082 29.75163459777832 22.88264083862305 C 29.7860050201416 22.90355110168457 29.81887626647949 22.92597007751465 29.84726524353027 22.95137023925781 C 30.34634590148926 23.37872123718262 31.37885475158691 23.99884033203125 31.37885475158691 24.65480995178223 C 31.37885475158691 25.89054107666016 29.6261157989502 26.89614105224609 28.39039611816406 26.89614105224609 Z" stroke="none" fill="#902fff"/>
      </g>
    </g>
  </g>
</svg>
