<svg xmlns="http://www.w3.org/2000/svg" width="23.166" height="23.166" viewBox="0 0 23.166 23.166">
  <g id="Group_14" data-name="Group 14" transform="translate(-381.992 -257.262)">
    <path id="Path_12" data-name="Path 12" d="M406.848,258.267c2.077,0,4.153-.015,6.23,0,1.807.017,2.62.821,2.627,2.628q.025,6.23,0,12.46c-.007,1.807-.82,2.62-2.627,2.627q-6.23.025-12.46,0c-1.807-.007-2.62-.82-2.627-2.627q-.025-6.23,0-12.46c.007-1.807.82-2.611,2.627-2.628C402.7,258.252,404.772,258.267,406.848,258.267Zm-.135,15.509c1.754,0,3.508.006,5.262,0,.847,0,1.161-.381.61-1.109-.947-1.25-1.949-2.459-2.931-3.683-.437-.544-.843-.435-1.237.06-.689.867-1.407,1.713-2.068,2.6-.418.561-.674.549-1.13,0-1.791-2.17-1.811-2.153-3.543.163-.194.259-.394.512-.58.776-.566.805-.3,1.19.631,1.195C403.39,273.782,405.052,273.776,406.714,273.776Z" transform="translate(-11.559 0)" fill="#fefefe" stroke="#a2a2c2" stroke-width="2"/>
    <path id="Path_13" data-name="Path 13" d="M391.276,292.146c-2.211,0-4.423.014-6.634,0-1.813-.015-2.634-.814-2.641-2.607-.017-4.469,0-8.938-.009-13.407,0-.848.1-1.688,1.168-1.651.966.034,1.055.838,1.053,1.63q-.013,5.943,0,11.887c0,1.706.224,1.933,1.9,1.936q5.529.011,11.057,0c.276,0,.553.006.829,0,.843-.023,1.69.081,1.666,1.151-.022.967-.818,1.072-1.615,1.068C395.792,292.139,393.534,292.147,391.276,292.146Z" transform="translate(0 -11.724)" fill="#a2a2c2"/>
  </g>
</svg>
