<svg xmlns="http://www.w3.org/2000/svg" width="23" height="22.866" viewBox="0 0 23 22.866">
  <g id="Group_13" data-name="Group 13" transform="translate(-381.547 -257.97)">
    <path id="Path_10" data-name="Path 10" d="M393.114,257.97a11.367,11.367,0,0,1,10.56,7.252c.215.578,1.039,1.5-.046,1.912a1.628,1.628,0,0,1-2.387-1.008,8.152,8.152,0,0,0-3.567-4.277c-.589-.36-1-.608-1.29.4a2.269,2.269,0,0,1-2.695,1.572c-1.253-.135-1.869.253-1.711,1.628s-.6,1.86-1.893,1.8c-.671-.031-1.467-.214-1.51.94-.039,1.044.543,1.17,1.34,1.135.777-.035,1,.45.926,1.093-.1.8.471,1.883-.411,2.35-1.016.538-1.58-.538-2.2-1.13-1.028-.978-2.007-2.007-3.021-3-.224-.219-.433-.664-.775-.508-.436.2-.369.72-.372,1.138a8.979,8.979,0,0,0,7.6,8.92c.565.1,1.259.013,1.445.854.309,1.4-.129,1.9-1.631,1.773-4.669-.386-9.235-4.867-9.832-9.651A11.493,11.493,0,0,1,393.114,257.97Z" fill="#a2a2c2"/>
    <path id="Path_11" data-name="Path 11" d="M417.637,295.053a4.886,4.886,0,0,1,3.016-4.719,5.182,5.182,0,0,1,7.166,6.123,2.076,2.076,0,0,0,.721,2.573,11.46,11.46,0,0,1,1.561,1.637,1.154,1.154,0,0,1-.14,1.662,1.091,1.091,0,0,1-1.548.04,17.626,17.626,0,0,1-1.847-1.752,1.8,1.8,0,0,0-2.207-.58A5.155,5.155,0,0,1,417.637,295.053Zm7.768-.041a2.384,2.384,0,0,0-2.582-2.526,2.606,2.606,0,0,0-2.688,2.652,2.843,2.843,0,0,0,2.673,2.617A2.606,2.606,0,0,0,425.405,295.012Z" transform="translate(-25.843 -22.787)" fill="#a2a2c2"/>
  </g>
</svg>
