<svg xmlns="http://www.w3.org/2000/svg" width="21.593" height="24" viewBox="0 0 21.593 24">
  <g id="fi-rr-settings_1" data-name="fi-rr-settings 1" transform="translate(-1.203)">
    <path id="Vector" d="M4,0A4,4,0,1,0,6.828,1.172,4,4,0,0,0,4,0ZM4,6a2,2,0,1,1,1.414-.586A2,2,0,0,1,4,6Z" transform="translate(8 8)" fill="#902fff"/>
    <path id="Vector-2" data-name="Vector" d="M20.091,13.9l-.444-.256a9.1,9.1,0,0,0,0-3.29l.444-.256a3,3,0,0,0-3-5.2l-.445.257A8.977,8.977,0,0,0,13.8,3.513V3a3,3,0,1,0-6,0v.513A8.977,8.977,0,0,0,4.949,5.159L4.5,4.9a3,3,0,0,0-3,5.2l.444.256a9.1,9.1,0,0,0,0,3.29L1.5,13.9a3,3,0,1,0,3,5.2l.445-.257A8.977,8.977,0,0,0,7.8,20.487V21a3,3,0,1,0,6,0v-.513a8.977,8.977,0,0,0,2.848-1.646l.447.258a3,3,0,0,0,3-5.2Zm-2.548-3.776a7.048,7.048,0,0,1,0,3.75,1,1,0,0,0,.464,1.133l1.084.626a1,1,0,1,1-1,1.733L17,16.738a1,1,0,0,0-1.215.165,6.984,6.984,0,0,1-3.243,1.875,1,1,0,0,0-.751.969V21a1,1,0,1,1-2,0V19.748a1,1,0,0,0-.751-.969A6.984,6.984,0,0,1,5.8,16.9a1,1,0,0,0-1.215-.165L3.5,17.362a1,1,0,1,1-1-1.732L3.588,15a1,1,0,0,0,.464-1.133,7.048,7.048,0,0,1,0-3.75,1,1,0,0,0-.465-1.129L2.5,8.366a1,1,0,1,1,1-1.733l1.086.628A1,1,0,0,0,5.8,7.1,6.984,6.984,0,0,1,9.046,5.225,1,1,0,0,0,9.8,4.252V3a1,1,0,0,1,2,0V4.252a1,1,0,0,0,.751.969A6.984,6.984,0,0,1,15.791,7.1a1,1,0,0,0,1.215.165l1.084-.627a1,1,0,1,1,1,1.732L18.006,9a1,1,0,0,0-.463,1.129Z" transform="translate(1.203 0)" fill="#902fff"/>
  </g>
</svg>
