<svg xmlns="http://www.w3.org/2000/svg" width="23.3" height="21.338" viewBox="0 0 23.3 21.338">
  <g id="Group_12" data-name="Group 12" transform="translate(-385.634 -261.907)">
    <path id="Path_9" data-name="Path 9" d="M397.175,283.24c-2.829,0-5.659.015-8.488-.005-2.111-.015-3.032-.845-3.039-2.771q-.028-7.847,0-15.694c.006-2,.928-2.84,3.141-2.847q8.488-.028,16.976,0c2.166.009,3.142.9,3.152,2.875q.037,7.847,0,15.694c-.01,1.9-.971,2.729-3.091,2.743C402.94,283.254,400.057,283.24,397.175,283.24Zm-1.051-10.628c0,1.413-.013,2.827.005,4.24.009.686.25,1.336,1.109,1.363.886.027,1.162-.672,1.171-1.317q.061-4.312-.005-8.626a1.112,1.112,0,0,0-1.3-1.189c-.82.068-.975.668-.982,1.288C396.113,269.784,396.123,271.2,396.124,272.612Zm-5.11,1.688c0,.925-.029,1.851.011,2.774a1.1,1.1,0,0,0,1.012,1.147,1.018,1.018,0,0,0,1.174-.966,28.361,28.361,0,0,0,.027-5.681,1.051,1.051,0,0,0-1.175-.98,1,1,0,0,0-1.04,1.078C390.983,272.547,391.011,273.424,391.014,274.3Zm10.2,1.777c.144.824-.255,2.14,1.21,2.095,1.344-.041,1.112-1.3,1.15-2.2a2.213,2.213,0,0,0-.229-1.277,1.1,1.1,0,0,0-1.169-.576.92.92,0,0,0-.845.762A9.824,9.824,0,0,0,401.211,276.077Z" fill="#a2a2c2"/>
  </g>
</svg>
